<?xml version="1.0" standalone="no"?>
<!DOCTYPE svg PUBLIC "-//W3C//DTD SVG 20010904//EN"
 "http://www.w3.org/TR/2001/REC-SVG-20010904/DTD/svg10.dtd">
<svg version="1.0" xmlns="http://www.w3.org/2000/svg"
 width="512.000000pt" height="512.000000pt" viewBox="0 0 512.000000 512.000000"
 preserveAspectRatio="xMidYMid meet">
<metadata>
Created by potrace 1.11, written by Peter Selinger 2001-2013
</metadata>
<g transform="translate(0.000000,512.000000) scale(0.100000,-0.100000)"
fill="#000000" stroke="none">
<path d="M2570 4615 c-25 -7 -72 -24 -105 -38 -33 -14 -135 -39 -226 -56 -208
-37 -298 -67 -384 -127 -58 -41 -115 -89 -114 -97 0 -1 -2 -9 -5 -17 -3 -8 -6
-24 -8 -34 -2 -14 -22 -26 -69 -41 -79 -27 -119 -52 -119 -74 0 -9 -16 -36
-35 -60 -26 -33 -32 -47 -24 -57 8 -10 2 -17 -26 -29 -21 -8 -41 -15 -46 -15
-5 0 -9 -5 -9 -11 0 -5 4 -8 9 -5 12 8 12 -75 0 -90 -5 -6 -20 -9 -34 -6 -30
5 -30 6 -6 -44 16 -32 17 -41 7 -49 -8 -6 -17 -29 -21 -52 -6 -38 -4 -44 17
-53 20 -10 23 -17 20 -51 -3 -23 1 -46 7 -52 19 -19 12 -47 -14 -57 -14 -5
-26 -15 -27 -22 -4 -41 -2 -66 9 -88 16 -33 2 -47 -32 -32 -34 15 -32 2 5 -33
24 -23 30 -37 30 -72 0 -39 4 -45 38 -67 71 -45 102 -94 102 -161 0 -19 5 -46
11 -62 6 -15 12 -53 13 -83 4 -78 4 -77 26 -83 11 -3 20 -12 20 -21 0 -10 11
-19 30 -22 17 -4 30 -11 30 -16 0 -6 7 -4 16 3 15 12 14 15 -6 31 -12 10 -19
18 -16 18 3 0 0 16 -8 35 -14 33 -13 39 7 36 12 -2 8 16 -7 28 -26 22 -25 63
1 114 19 36 26 65 28 115 1 72 21 114 89 193 17 20 41 50 54 67 24 31 26 32
85 10 30 -11 32 -35 2 -30 -9 2 -14 -1 -11 -6 3 -5 -8 -27 -24 -47 -34 -43
-42 -105 -14 -105 9 0 30 -6 47 -13 91 -39 149 -50 255 -50 134 2 237 8 280
17 21 5 32 4 32 -3 0 -6 -9 -11 -20 -11 -21 0 -24 -8 -14 -34 6 -15 9 -14 28
4 11 11 41 39 67 62 25 24 51 59 59 78 7 19 23 49 36 66 17 23 20 34 12 42 -8
8 -4 14 16 22 23 8 32 7 53 -10 24 -19 83 -103 83 -118 0 -12 51 -57 80 -72
27 -14 153 -24 292 -22 73 1 98 6 159 32 46 19 88 30 119 30 63 0 81 17 75 72
-3 22 -8 44 -10 49 -7 11 31 22 53 14 9 -3 31 -26 47 -52 17 -25 39 -59 49
-76 17 -25 29 -73 27 -102 -1 -5 -2 -59 -4 -118 -2 -63 -9 -113 -15 -119 -14
-14 -16 -48 -4 -48 16 0 -1 -61 -19 -71 -19 -10 -20 -9 -23 11 0 6 -5 14 -11
18 -5 4 -18 25 -29 47 -18 40 -18 40 -33 18 -19 -28 -47 -29 -66 -3 -12 17
-21 19 -61 14 -30 -5 -43 -10 -35 -15 22 -13 4 -20 -24 -10 -18 7 -28 7 -33 0
-4 -7 -10 -6 -19 1 -13 11 -27 8 -84 -17 -18 -8 -49 -13 -70 -11 -36 5 -66 -6
-86 -29 -10 -13 -61 -19 -129 -15 -29 2 -37 5 -32 17 3 9 0 15 -9 15 -24 0
-18 10 46 71 50 49 59 63 54 82 -9 29 -26 46 -18 18 6 -25 7 -25 -68 -6 -53
14 -68 14 -145 1 -48 -9 -92 -20 -100 -27 -10 -8 -19 -7 -36 5 -12 9 -32 16
-45 16 -25 0 -73 20 -73 30 0 16 -45 18 -108 5 -78 -17 -96 -7 -58 28 14 13
26 27 26 31 0 13 -31 5 -37 -9 -3 -9 -18 -22 -34 -31 -16 -8 -29 -20 -29 -27
0 -20 -60 -88 -89 -99 -30 -13 -141 -19 -141 -8 0 9 -36 22 -69 24 -14 1 -26
7 -29 14 -2 7 -8 10 -13 6 -5 -3 -9 1 -9 9 0 10 -7 13 -20 10 -16 -4 -18 -8
-9 -19 9 -11 7 -14 -9 -14 -12 0 -24 -11 -32 -29 -12 -30 -47 -46 -80 -36 -13
4 -19 -1 -24 -20 -4 -14 -4 -30 -1 -35 7 -11 -30 -32 -39 -23 -3 3 -6 1 -6 -5
0 -6 8 -13 18 -15 16 -4 16 -5 -1 -6 -15 -1 -16 -5 -7 -21 7 -14 7 -20 0 -20
-20 0 -10 -19 12 -22 30 -4 35 -32 8 -44 l-21 -9 21 -22 c11 -12 20 -29 20
-38 0 -8 4 -15 10 -15 5 0 7 -6 4 -13 -2 -7 7 -35 21 -62 16 -31 30 -81 36
-130 11 -91 8 -192 -6 -186 -6 2 -21 8 -35 13 -25 10 -128 -19 -265 -74 -27
-11 -63 -24 -80 -28 -16 -4 -93 -26 -170 -48 -154 -45 -486 -120 -665 -151
-238 -42 -410 -81 -410 -93 0 -5 25 -59 56 -121 57 -113 176 -300 236 -370
l33 -38 127 83 c70 46 188 124 263 175 74 50 187 117 251 147 63 31 134 69
157 84 51 35 129 72 139 66 4 -3 23 -35 43 -72 46 -89 164 -224 267 -306 209
-167 502 -260 818 -259 332 1 707 107 956 269 99 65 238 186 283 248 19 25 41
46 49 46 8 0 54 -26 102 -57 48 -32 155 -98 236 -148 166 -100 187 -114 300
-201 43 -33 93 -70 110 -82 l32 -22 74 98 c90 118 131 181 190 292 56 103 111
235 106 252 -5 14 -85 33 -408 98 -140 28 -304 62 -365 75 -60 13 -137 29
-170 35 -116 20 -328 92 -394 132 -23 15 -52 22 -87 22 l-54 1 0 35 c0 46 37
199 55 226 7 11 45 39 83 62 74 44 107 84 118 143 4 19 11 40 17 46 5 7 7 24
5 38 -3 13 -1 26 5 28 5 1 7 16 2 36 -4 20 -12 31 -19 28 -7 -3 -19 -2 -26 3
-9 6 -5 13 16 26 37 24 63 55 64 75 0 8 12 26 26 40 14 13 34 40 44 60 11 20
42 53 69 75 59 45 70 67 45 95 -18 20 -17 21 14 45 36 28 45 77 16 88 -13 5
-7 15 30 49 50 47 64 86 24 67 l-23 -11 22 19 c20 17 21 22 8 32 -19 16 -19
39 0 46 16 7 21 39 6 48 -12 8 0 59 18 72 13 10 13 14 2 28 -10 12 -24 15 -50
11 -20 -3 -30 -2 -23 1 10 5 10 9 1 20 -9 12 -8 19 8 37 37 40 36 45 -8 57
-32 9 -39 15 -34 28 4 9 9 35 12 57 4 35 0 45 -30 78 -33 35 -38 37 -97 37
l-62 0 5 27 c3 18 -1 36 -14 52 -10 13 -19 31 -19 41 0 23 -22 41 -105 85 -38
21 -74 41 -80 45 -5 5 -40 12 -76 18 -40 6 -89 23 -125 43 -32 18 -80 43 -105
55 -25 13 -52 30 -59 39 -19 23 -51 39 -48 24 2 -6 -3 -14 -11 -16 -9 -4 -11
0 -6 16 4 15 2 21 -9 21 -8 0 -22 7 -30 16 -9 8 -28 14 -43 13 -56 -4 -83 1
-83 16 0 8 -3 15 -7 15 -5 0 -39 7 -78 16 -149 32 -244 43 -282 31 -28 -9 -37
-9 -41 1 -5 15 -14 14 -72 -3z m344 -695 c30 -5 72 -6 91 -3 31 5 41 1 68 -25
22 -21 46 -33 77 -38 49 -7 73 -21 64 -36 -3 -5 3 -12 15 -15 11 -3 18 -9 15
-14 -2 -5 8 -12 23 -15 59 -15 147 -78 139 -100 -3 -7 1 -15 8 -17 16 -6 45
-66 50 -104 3 -15 9 -43 15 -62 6 -19 9 -37 6 -39 -2 -2 -28 8 -57 22 -78 38
-299 78 -428 77 -19 0 -38 5 -42 12 -5 8 -9 6 -13 -6 -5 -12 -11 -14 -25 -7
-15 8 -19 5 -24 -15 -5 -21 -9 -23 -25 -14 -10 7 -30 9 -44 5 -22 -5 -27 -12
-27 -36 0 -31 -14 -36 -72 -31 -12 2 -16 -3 -12 -12 4 -10 -3 -13 -28 -10 -25
3 -29 2 -18 -6 9 -7 10 -11 3 -11 -6 0 -15 5 -18 10 -3 6 -13 10 -21 10 -9 0
-12 -5 -8 -11 4 -7 1 -10 -7 -7 -8 3 -13 11 -11 18 2 8 -4 11 -17 7 -12 -3
-27 3 -37 14 -11 12 -25 17 -36 13 -19 -6 -48 16 -48 37 0 8 -7 6 -19 -5 -18
-16 -20 -16 -39 9 -12 15 -19 32 -16 40 3 7 0 16 -7 21 -8 4 -10 3 -5 -4 4 -7
3 -12 -3 -12 -5 0 -13 5 -16 10 -4 6 -15 8 -26 5 -10 -4 -24 -3 -31 2 -16 9
-68 11 -68 1 0 -3 -26 -6 -57 -6 -101 0 -248 -27 -279 -53 -12 -9 -13 -3 -11
38 4 62 41 117 75 110 12 -2 20 -2 17 1 -2 3 0 11 7 19 9 11 7 12 -7 7 -12 -5
-16 -4 -11 4 4 7 22 9 49 6 54 -7 104 10 88 30 -9 10 -9 16 -1 21 6 4 15 17
20 29 4 13 14 23 22 23 8 0 40 12 71 27 32 15 62 24 67 21 6 -3 10 -2 10 4 0
5 8 10 18 9 9 0 32 6 49 13 26 11 39 11 67 1 30 -11 39 -11 59 3 13 8 31 13
40 9 9 -3 24 1 33 11 14 14 35 16 142 12 81 -3 127 -8 130 -16 2 -6 9 -11 15
-11 6 0 0 12 -14 26 -23 26 -23 26 -2 20 11 -4 46 -11 77 -16z m-580 -611 c34
-16 23 -29 -25 -29 -42 0 -42 0 -33 24 7 19 24 20 58 5z m-243 -20 c11 -21 10
-22 -22 -15 -40 8 -48 14 -29 26 24 15 38 12 51 -11z m941 -4 c4 -18 1 -25
-11 -25 -28 0 -61 12 -61 21 0 10 35 27 56 28 7 1 14 -10 16 -24z m223 -15
c-3 -5 -10 -10 -16 -10 -5 0 -9 5 -9 10 0 6 7 10 16 10 8 0 12 -4 9 -10z
m-418 -502 c50 -2 73 -7 73 -15 0 -7 6 -13 14 -13 16 0 31 -18 23 -26 -2 -3
-40 3 -83 12 -73 16 -193 23 -436 27 -54 1 -92 5 -85 9 20 10 187 11 228 0 27
-7 49 -5 85 7 32 11 59 14 78 9 16 -4 62 -9 103 -10z m-537 -28 c-8 -5 -22
-10 -30 -10 -13 0 -13 1 0 10 8 5 22 10 30 10 13 0 13 -1 0 -10z m476 -107
c-3 -22 -10 -29 -37 -36 -39 -10 -128 -4 -138 9 -7 11 -29 10 -54 -1 -11 -5
-29 -2 -44 6 l-27 14 40 3 c21 2 44 8 51 14 9 7 13 7 13 -2 0 -9 4 -9 13 -2
16 13 49 19 124 21 61 1 62 1 59 -26z m123 -163 c24 -6 50 -18 58 -25 16 -17
17 -45 2 -45 -7 0 -17 -6 -23 -14 -8 -11 -22 -12 -60 -6 -37 5 -54 4 -63 -6
-9 -9 -30 -11 -66 -7 -41 4 -60 1 -79 -11 -23 -15 -26 -15 -32 -1 -4 11 -13
14 -25 10 -10 -3 -23 1 -30 9 -10 12 -7 16 23 22 22 4 36 12 36 21 0 8 3 12 8
10 4 -3 25 4 47 15 50 26 125 48 145 43 8 -2 35 -9 59 -15z m713 -322 c88 -84
102 -118 96 -228 -7 -129 -95 -255 -272 -390 -123 -94 -321 -180 -498 -216
-116 -24 -135 -26 -333 -20 -190 4 -221 8 -327 35 -65 16 -163 50 -218 75
-110 49 -238 129 -248 155 -3 9 -27 36 -53 61 -65 64 -114 145 -133 221 -15
60 -17 161 -4 174 3 4 21 -7 39 -23 19 -16 44 -32 57 -36 12 -4 22 -12 22 -17
0 -5 9 -9 19 -9 10 0 21 -7 25 -15 3 -8 11 -13 18 -11 52 16 66 16 61 -2 -5
-22 21 -47 38 -36 9 5 7 10 -5 19 -15 11 -13 14 15 24 35 12 51 7 43 -13 -10
-25 160 -41 176 -17 5 9 18 12 41 7 88 -16 119 -18 119 -7 0 17 24 13 42 -8
16 -19 16 -20 -5 -24 -15 -3 -12 -5 11 -6 30 -1 48 -21 20 -21 -7 -1 -2 -7 12
-15 14 -7 27 -10 30 -6 8 13 80 23 80 11 0 -5 -6 -10 -12 -11 -10 0 -10 -2 -1
-6 7 -2 20 3 29 12 9 8 24 13 33 11 9 -3 22 -2 29 2 14 9 -62 52 -92 52 -10 0
-14 5 -11 10 3 6 22 10 41 10 19 0 34 -4 34 -10 0 -16 27 -12 34 5 7 20 -32
55 -63 55 -13 0 -21 3 -18 7 4 3 65 7 137 8 71 0 124 -2 117 -7 -7 -5 -2 -8
14 -8 30 0 35 -28 9 -44 -12 -8 -9 -12 15 -22 l30 -13 -32 -1 c-35 0 -47 -25
-18 -36 8 -4 12 -11 8 -17 -4 -7 0 -8 12 -3 14 5 15 3 7 -6 -8 -10 -4 -13 15
-14 16 -1 23 2 19 11 -6 16 29 32 70 34 20 1 34 -5 38 -14 4 -10 -1 -15 -15
-15 -11 0 -17 5 -14 10 3 6 1 10 -4 10 -6 0 -11 -9 -11 -20 0 -14 7 -20 23
-20 12 0 31 -2 42 -4 11 -2 14 -1 8 1 -21 7 -15 31 9 39 l21 6 -22 17 -22 17
25 21 c13 12 26 19 29 17 3 -3 27 1 53 10 27 8 40 15 29 15 -33 2 4 21 40 21
17 0 41 3 53 7 18 4 21 8 10 15 -9 7 -4 8 15 4 16 -4 27 -2 27 4 0 6 4 9 8 6
5 -3 21 2 37 10 29 15 50 10 25 -6 -11 -7 -7 -10 16 -10 39 0 48 -9 26 -26
-16 -12 -15 -13 4 -14 12 0 27 7 34 15 7 8 16 12 21 9 13 -7 71 25 64 36 -4 6
-2 10 4 10 5 0 24 13 41 28 39 36 52 80 34 113 -14 26 -19 79 -6 79 4 0 42
-33 84 -72z m-1222 -188 c0 -5 -5 -10 -11 -10 -5 0 -7 5 -4 10 3 6 8 10 11 10
2 0 4 -4 4 -10z m65 -40 c10 -11 13 -20 7 -20 -7 0 -12 5 -12 10 0 6 -7 10
-15 10 -8 0 -15 5 -15 10 0 16 15 12 35 -10z m-417 -9 c9 -5 26 -12 36 -16 10
-3 16 -8 13 -11 -8 -8 -77 16 -77 27 0 11 6 11 28 0z m347 -1 c-3 -5 -13 -10
-21 -10 -8 0 -12 5 -9 10 3 6 13 10 21 10 8 0 12 -4 9 -10z m40 -20 c-27 -12
-35 -12 -35 0 0 6 12 10 28 9 24 0 25 -1 7 -9z m-45 -20 c0 -5 -4 -10 -9 -10
-6 0 -13 5 -16 10 -3 6 1 10 9 10 9 0 16 -4 16 -10z"/>
<path d="M2891 3891 c-10 -6 -10 -10 -1 -16 14 -9 60 2 60 15 0 12 -40 13 -59
1z"/>
<path d="M2010 3650 c0 -5 4 -10 9 -10 6 0 13 5 16 10 3 6 -1 10 -9 10 -9 0
-16 -4 -16 -10z"/>
<path d="M2420 3550 c6 -11 13 -20 16 -20 2 0 0 9 -6 20 -6 11 -13 20 -16 20
-2 0 0 -9 6 -20z"/>
<path d="M3278 1943 c7 -3 16 -2 19 1 4 3 -2 6 -13 5 -11 0 -14 -3 -6 -6z"/>
<path d="M1810 1885 c15 -18 14 -18 -28 -6 -20 6 -30 6 -27 0 4 -5 13 -9 21
-9 8 0 14 -7 14 -15 0 -15 38 -40 47 -31 11 11 5 59 -8 67 -22 14 -33 10 -19
-6z"/>
<path d="M3155 1875 c-5 -2 -31 -6 -58 -10 -43 -6 -46 -8 -36 -26 12 -24 14
-23 -31 -36 l-35 -10 45 1 c25 1 51 5 58 9 11 8 16 2 13 -15 0 -5 8 -8 19 -8
21 0 27 15 10 25 -5 3 -6 13 -3 21 4 11 9 12 16 5 6 -6 19 -11 29 -11 26 0 11
30 -16 31 -16 1 -17 2 -3 6 9 2 17 9 17 14 0 9 -7 10 -25 4z m-15 -19 c0 -3
-4 -8 -10 -11 -5 -3 -10 -1 -10 4 0 6 5 11 10 11 6 0 10 -2 10 -4z"/>
<path d="M1915 1860 c-3 -6 1 -7 9 -4 18 7 21 14 7 14 -6 0 -13 -4 -16 -10z"/>
<path d="M2135 1860 c3 -5 16 -10 28 -9 21 0 21 1 2 9 -28 12 -37 12 -30 0z"/>
<path d="M2100 1850 c0 -6 12 -15 26 -20 37 -15 40 -12 11 10 -28 22 -37 25
-37 10z"/>
<path d="M2683 1823 c9 -2 25 -2 35 0 9 3 1 5 -18 5 -19 0 -27 -2 -17 -5z"/>
<path d="M2185 1810 c3 -5 13 -10 21 -10 8 0 12 5 9 10 -3 6 -13 10 -21 10 -8
0 -12 -4 -9 -10z"/>
<path d="M2635 1810 c3 -5 8 -10 11 -10 2 0 4 5 4 10 0 6 -5 10 -11 10 -5 0
-7 -4 -4 -10z"/>
<path d="M2838 1793 c6 -2 18 -2 25 0 6 3 1 5 -13 5 -14 0 -19 -2 -12 -5z"/>
<path d="M3078 1773 c7 -3 16 -2 19 1 4 3 -2 6 -13 5 -11 0 -14 -3 -6 -6z"/>
<path d="M2910 3045 c0 -8 5 -15 10 -15 6 0 10 7 10 15 0 8 -4 15 -10 15 -5 0
-10 -7 -10 -15z"/>
</g>
</svg>
